<svg width="116" height="163" viewBox="0 0 116 163" fill="none" xmlns="http://www.w3.org/2000/svg">
<path d="M89.3833 84.9425L90.7453 82.5853C90.7727 82.5444 90.7982 82.5029 90.8237 82.4651L95.4023 74.5559H76.7801L81.4352 82.5965L82.7929 84.9425H89.3833ZM55.9666 35.5704H58.526V38.1241H55.9666V35.5704ZM59.8073 39.4019H62.3661V41.9538H59.8073V39.4019ZM55.9666 39.4019H58.526V41.9538H55.9666V39.4019ZM59.8073 35.5704H62.3661V38.1241H59.8073V35.5704ZM48.108 45.4697H59.0911L59.1657 45.4679L59.2403 45.4697H70.2234V35.1977L64.7042 32.0197L59.1657 28.8298L53.7578 31.944C53.7199 31.9688 53.6782 31.9943 53.6372 32.0197L48.108 35.2021V45.4697ZM70.2234 50.2647H61.5703V68.5612C61.5703 72.8261 59.834 76.7258 57.0315 79.5889C56.9917 79.6367 56.947 79.6844 56.9028 79.7284C54.0251 82.5983 50.0564 84.3839 45.7034 84.3839C41.3648 84.3839 37.4023 82.5996 34.5202 79.7334L34.5152 79.7284L34.5102 79.7241L34.5071 79.7191C31.6269 76.8449 29.8365 72.8893 29.8365 68.5612V29.7363C29.8365 28.7678 30.4141 27.9327 31.2434 27.5551L57.9485 12.1788L57.974 12.1627L58.0293 12.1329L58.061 12.1168L58.0834 12.1044L58.112 12.0895L58.163 12.0647L58.1915 12.0517L58.217 12.0405L58.2475 12.0281L58.2699 12.0201L58.324 11.9996L58.3606 11.9854L58.3781 11.9785H58.3793L58.4321 11.9612L58.4732 11.9488L58.4875 11.9438C58.5577 11.9234 58.6311 11.906 58.7007 11.8911L58.7088 11.8899L58.7678 11.8806L58.8188 11.8707L58.825 11.8694L58.881 11.8626L58.9332 11.8564H58.9382L58.9923 11.8515H58.9954L59.0495 11.8484H59.0544L59.1066 11.8471H59.1116L59.1638 11.8453H59.1676L59.2229 11.8471H59.226L59.282 11.8484H59.2832L59.3392 11.8515H59.3423L59.3951 11.8564H59.3995L59.4523 11.8626L59.5095 11.8694L59.5157 11.8707L59.5667 11.8806L59.6226 11.8899L59.6307 11.8911C59.7035 11.906 59.7749 11.9234 59.8471 11.9438L59.8595 11.9488L59.9011 11.9612L59.9552 11.9785H59.9565L59.9739 11.9854L60.0093 11.9996L60.0615 12.0201L60.0858 12.0281L60.1175 12.0405L60.1411 12.0517L60.1685 12.0647L60.1952 12.0771L60.2207 12.0895L60.2511 12.1044L60.2717 12.1168L60.3052 12.1329L60.3612 12.1627L60.3867 12.1788L87.088 27.5539C87.9174 27.9327 88.4949 28.766 88.4949 29.7363V69.7596H97.1498V27.0201L78.292 16.1641C78.2473 16.1405 78.2013 16.1164 78.1565 16.0909L59.1657 5.15557L40.1749 16.0909L40.173 16.0866L40.165 16.0909L21.1816 27.0201V48.9026L21.1804 49.0154L21.1835 49.1394V68.5612C21.1835 75.2831 23.9431 81.3968 28.388 85.8297C32.8317 90.2626 38.962 93.0148 45.7034 93.0148C52.4448 93.0148 58.5751 90.2626 63.0201 85.8297C67.4638 81.3968 70.2234 75.2831 70.2234 68.5612V50.2647ZM56.7611 50.2647H48.108V68.5612C48.108 69.8849 47.0307 70.9581 45.7034 70.9581C44.3762 70.9581 43.2988 69.8849 43.2988 68.5612V33.8245C43.2988 32.8784 43.8508 32.0594 44.6497 31.6706L51.2319 27.8788C51.2755 27.8534 51.3227 27.8298 51.3675 27.8075L57.974 24.0032C58.7486 23.5606 59.6655 23.5953 60.3867 24.0187L67.0895 27.8788L73.8197 31.7549C74.5918 32.1964 75.0214 32.9974 75.0233 33.8245H75.0326V68.5612C75.0326 68.9629 75.0245 69.3628 75.0071 69.7596H83.6869V31.1071L59.1657 16.9893L34.6458 31.1089V68.5612C34.6458 71.5836 35.8935 74.342 37.8959 76.3371L37.9052 76.3464C39.9088 78.3446 42.6715 79.5889 45.7034 79.5889C48.7303 79.5889 51.493 78.3415 53.5017 76.3371C53.5415 76.2986 53.5794 76.2621 53.6192 76.2273C55.5594 74.2403 56.7611 71.5291 56.7611 68.5612V50.2647ZM73.379 78.2274C71.9025 82.4012 69.4991 86.1503 66.4181 89.2198C61.1059 94.5213 53.7708 97.8098 45.7034 97.8098C37.6348 97.8098 30.3028 94.5213 24.9887 89.2198C19.6766 83.922 16.3755 76.6068 16.3755 68.5612V49.1394L16.3786 49.0278L16.3755 48.9026V25.6493C16.3755 24.679 16.9518 23.8457 17.7811 23.4669L37.7715 11.955L37.7697 11.9519L57.964 0.324002C58.7405 -0.12673 59.6637 -0.0920104 60.3867 0.333922L80.5617 11.9519C80.6028 11.9754 80.6444 12.0009 80.6824 12.0281L100.746 23.5779C101.516 24.0187 101.948 24.8222 101.948 25.6493H101.959V72.1577C101.959 72.6754 101.795 73.1528 101.516 73.5453L94.9708 84.8508C94.9466 84.8966 94.923 84.9407 94.8975 84.9841L88.1673 96.6113L88.1642 96.6101C87.959 96.9604 87.6612 97.2654 87.2826 97.483C86.1381 98.1384 84.6741 97.7447 84.0151 96.6033L77.2849 84.9741L73.379 78.2274Z" fill="white"/>
<path d="M30.6992 120C30.5273 119.474 30.3008 119.003 30.0195 118.586C29.7435 118.164 29.4128 117.805 29.0273 117.508C28.6471 117.211 28.2148 116.984 27.7305 116.828C27.2461 116.672 26.7148 116.594 26.1367 116.594C25.1888 116.594 24.3268 116.839 23.5508 117.328C22.7747 117.818 22.1576 118.539 21.6992 119.492C21.2409 120.445 21.0117 121.615 21.0117 123C21.0117 124.385 21.2435 125.555 21.707 126.508C22.1706 127.461 22.7982 128.182 23.5898 128.672C24.3815 129.161 25.2721 129.406 26.2617 129.406C27.1784 129.406 27.9857 129.211 28.6836 128.82C29.3867 128.424 29.9336 127.867 30.3242 127.148C30.7201 126.424 30.918 125.573 30.918 124.594L31.5117 124.719H26.6992V123H32.793V124.719C32.793 126.036 32.5117 127.182 31.9492 128.156C31.3919 129.13 30.6211 129.885 29.6367 130.422C28.6576 130.953 27.5326 131.219 26.2617 131.219C24.8451 131.219 23.6003 130.885 22.5273 130.219C21.4596 129.552 20.6263 128.604 20.0273 127.375C19.4336 126.146 19.1367 124.687 19.1367 123C19.1367 121.734 19.306 120.596 19.6445 119.586C19.9883 118.57 20.4727 117.706 21.0977 116.992C21.7227 116.279 22.4622 115.732 23.3164 115.352C24.1706 114.971 25.1107 114.781 26.1367 114.781C26.9805 114.781 27.7669 114.909 28.4961 115.164C29.2305 115.414 29.8841 115.771 30.457 116.234C31.0352 116.693 31.5169 117.242 31.9023 117.883C32.2878 118.518 32.5534 119.224 32.6992 120H30.6992ZM40.8926 131.25C39.7363 131.25 38.7389 130.995 37.9004 130.484C37.0671 129.969 36.4238 129.25 35.9707 128.328C35.5228 127.401 35.2988 126.323 35.2988 125.094C35.2988 123.865 35.5228 122.781 35.9707 121.844C36.4238 120.901 37.054 120.167 37.8613 119.641C38.6738 119.109 39.6217 118.844 40.7051 118.844C41.3301 118.844 41.9473 118.948 42.5566 119.156C43.166 119.365 43.7207 119.703 44.2207 120.172C44.7207 120.635 45.1191 121.25 45.416 122.016C45.7129 122.781 45.8613 123.724 45.8613 124.844V125.625H36.6113V124.031H43.9863C43.9863 123.354 43.8509 122.75 43.5801 122.219C43.3145 121.687 42.9342 121.268 42.4395 120.961C41.9499 120.654 41.3717 120.5 40.7051 120.5C39.9707 120.5 39.3353 120.682 38.7988 121.047C38.2676 121.406 37.8587 121.875 37.5723 122.453C37.2858 123.031 37.1426 123.651 37.1426 124.312V125.375C37.1426 126.281 37.2988 127.049 37.6113 127.68C37.929 128.305 38.3691 128.781 38.9316 129.109C39.4941 129.432 40.1478 129.594 40.8926 129.594C41.377 129.594 41.8145 129.526 42.2051 129.391C42.6009 129.25 42.9421 129.042 43.2285 128.766C43.515 128.484 43.7363 128.135 43.8926 127.719L45.6738 128.219C45.4863 128.823 45.1712 129.354 44.7285 129.812C44.2858 130.266 43.7389 130.62 43.0879 130.875C42.4368 131.125 41.7051 131.25 40.8926 131.25ZM57.166 121.687L55.5098 122.156C55.4056 121.88 55.252 121.612 55.0488 121.352C54.8509 121.086 54.5801 120.867 54.2363 120.695C53.8926 120.523 53.4525 120.437 52.916 120.437C52.1816 120.437 51.5697 120.607 51.0801 120.945C50.5957 121.279 50.3535 121.703 50.3535 122.219C50.3535 122.677 50.5202 123.039 50.8535 123.305C51.1868 123.57 51.7077 123.792 52.416 123.969L54.1973 124.406C55.2702 124.667 56.0697 125.065 56.5957 125.602C57.1217 126.133 57.3848 126.818 57.3848 127.656C57.3848 128.344 57.1868 128.958 56.791 129.5C56.4004 130.042 55.8535 130.469 55.1504 130.781C54.4473 131.094 53.6296 131.25 52.6973 131.25C51.4733 131.25 50.4603 130.984 49.6582 130.453C48.8561 129.922 48.3483 129.146 48.1348 128.125L49.8848 127.687C50.0514 128.333 50.3665 128.818 50.8301 129.141C51.2988 129.464 51.9108 129.625 52.666 129.625C53.5254 129.625 54.2077 129.443 54.7129 129.078C55.2233 128.708 55.4785 128.266 55.4785 127.75C55.4785 127.333 55.3327 126.984 55.041 126.703C54.7493 126.417 54.3014 126.203 53.6973 126.062L51.6973 125.594C50.5983 125.333 49.791 124.93 49.2754 124.383C48.765 123.831 48.5098 123.141 48.5098 122.312C48.5098 121.635 48.6999 121.036 49.0801 120.516C49.4655 119.995 49.9889 119.586 50.6504 119.289C51.3171 118.992 52.0723 118.844 52.916 118.844C54.1035 118.844 55.0358 119.104 55.7129 119.625C56.3952 120.146 56.8796 120.833 57.166 121.687ZM65.3789 119V120.562H59.1602V119H65.3789ZM60.9727 116.125H62.8164V127.562C62.8164 128.083 62.8919 128.474 63.043 128.734C63.1992 128.99 63.3971 129.161 63.6367 129.25C63.8815 129.333 64.1393 129.375 64.4102 129.375C64.6133 129.375 64.7799 129.365 64.9102 129.344C65.0404 129.318 65.1445 129.297 65.2227 129.281L65.5977 130.937C65.4727 130.984 65.2982 131.031 65.0742 131.078C64.8503 131.13 64.5664 131.156 64.2227 131.156C63.7018 131.156 63.1914 131.044 62.6914 130.82C62.1966 130.596 61.7852 130.255 61.457 129.797C61.1341 129.339 60.9727 128.76 60.9727 128.062V116.125ZM71.6836 131.281C70.9232 131.281 70.2331 131.138 69.6133 130.852C68.9935 130.56 68.5013 130.141 68.1367 129.594C67.7721 129.042 67.5898 128.375 67.5898 127.594C67.5898 126.906 67.7253 126.349 67.9961 125.922C68.2669 125.49 68.6289 125.151 69.082 124.906C69.5352 124.661 70.0352 124.479 70.582 124.359C71.1341 124.234 71.6888 124.135 72.2461 124.063C72.9753 123.969 73.5664 123.898 74.0195 123.852C74.4779 123.799 74.8112 123.714 75.0195 123.594C75.2331 123.474 75.3398 123.266 75.3398 122.969V122.906C75.3398 122.135 75.1289 121.536 74.707 121.109C74.2904 120.682 73.6576 120.469 72.8086 120.469C71.9284 120.469 71.2383 120.661 70.7383 121.047C70.2383 121.432 69.8867 121.844 69.6836 122.281L67.9336 121.656C68.2461 120.927 68.6628 120.359 69.1836 119.953C69.7096 119.542 70.2826 119.255 70.9023 119.094C71.5273 118.927 72.1419 118.844 72.7461 118.844C73.1315 118.844 73.5742 118.891 74.0742 118.984C74.5794 119.073 75.0664 119.258 75.5352 119.539C76.0091 119.82 76.4023 120.245 76.7148 120.812C77.0273 121.38 77.1836 122.141 77.1836 123.094V131H75.3398V129.375H75.2461C75.1211 129.635 74.9128 129.914 74.6211 130.211C74.3294 130.508 73.9414 130.76 73.457 130.969C72.9727 131.177 72.3815 131.281 71.6836 131.281ZM71.9648 129.625C72.694 129.625 73.3086 129.482 73.8086 129.195C74.3138 128.909 74.694 128.539 74.9492 128.086C75.2096 127.633 75.3398 127.156 75.3398 126.656V124.969C75.2617 125.062 75.0898 125.148 74.8242 125.227C74.5638 125.299 74.2617 125.365 73.918 125.422C73.5794 125.474 73.2487 125.521 72.9258 125.562C72.6081 125.599 72.3503 125.63 72.1523 125.656C71.6732 125.719 71.2253 125.82 70.8086 125.961C70.3971 126.096 70.0638 126.302 69.8086 126.578C69.5586 126.849 69.4336 127.219 69.4336 127.687C69.4336 128.328 69.6706 128.812 70.1445 129.141C70.6237 129.464 71.2305 129.625 71.9648 129.625ZM70.4648 117.562L69.0273 117.5C69.0273 116.703 69.2539 116.052 69.707 115.547C70.1654 115.036 70.7305 114.781 71.4023 114.781C71.6992 114.781 71.9622 114.833 72.1914 114.937C72.4206 115.036 72.6393 115.151 72.8477 115.281C73.056 115.411 73.2695 115.529 73.4883 115.633C73.7122 115.732 73.9648 115.781 74.2461 115.781C74.543 115.781 74.793 115.667 74.9961 115.437C75.2044 115.203 75.3086 114.922 75.3086 114.594L76.7148 114.719C76.7148 115.531 76.4857 116.177 76.0273 116.656C75.5742 117.135 75.0117 117.375 74.3398 117.375C73.9805 117.375 73.6836 117.326 73.4492 117.227C73.2148 117.122 73.0065 117.005 72.8242 116.875C72.6419 116.745 72.4492 116.63 72.2461 116.531C72.043 116.427 71.793 116.375 71.4961 116.375C71.1992 116.375 70.9518 116.492 70.7539 116.727C70.5612 116.956 70.4648 117.234 70.4648 117.562ZM85.4238 131.25C84.3405 131.25 83.39 130.992 82.5723 130.477C81.7598 129.961 81.1243 129.24 80.666 128.312C80.2129 127.385 79.9863 126.302 79.9863 125.062C79.9863 123.812 80.2129 122.721 80.666 121.789C81.1243 120.857 81.7598 120.133 82.5723 119.617C83.39 119.102 84.3405 118.844 85.4238 118.844C86.5072 118.844 87.4551 119.102 88.2676 119.617C89.0853 120.133 89.7207 120.857 90.1738 121.789C90.6322 122.721 90.8613 123.812 90.8613 125.062C90.8613 126.302 90.6322 127.385 90.1738 128.312C89.7207 129.24 89.0853 129.961 88.2676 130.477C87.4551 130.992 86.5072 131.25 85.4238 131.25ZM85.4238 129.594C86.2467 129.594 86.9238 129.383 87.4551 128.961C87.9863 128.539 88.3796 127.984 88.6348 127.297C88.89 126.609 89.0176 125.865 89.0176 125.062C89.0176 124.26 88.89 123.513 88.6348 122.82C88.3796 122.128 87.9863 121.568 87.4551 121.141C86.9238 120.714 86.2467 120.5 85.4238 120.5C84.6009 120.5 83.9238 120.714 83.3926 121.141C82.8613 121.568 82.4681 122.128 82.2129 122.82C81.9577 123.513 81.8301 124.26 81.8301 125.062C81.8301 125.865 81.9577 126.609 82.2129 127.297C82.4681 127.984 82.8613 128.539 83.3926 128.961C83.9238 129.383 84.6009 129.594 85.4238 129.594ZM3.06934 158H1.03809L6.91309 142H8.91309L14.7881 158H12.7568L7.97559 144.531H7.85059L3.06934 158ZM3.81934 151.75H12.0068V153.469H3.81934V151.75ZM21.9053 158.25C20.7803 158.25 19.8115 157.984 18.999 157.453C18.1865 156.922 17.5615 156.19 17.124 155.258C16.6865 154.326 16.4678 153.26 16.4678 152.062C16.4678 150.844 16.6917 149.768 17.1396 148.836C17.5928 147.898 18.223 147.167 19.0303 146.641C19.8428 146.109 20.7907 145.844 21.874 145.844C22.7178 145.844 23.4782 146 24.1553 146.312C24.8324 146.625 25.387 147.062 25.8193 147.625C26.2516 148.187 26.5199 148.844 26.624 149.594H24.7803C24.6396 149.047 24.3271 148.562 23.8428 148.141C23.3636 147.714 22.7178 147.5 21.9053 147.5C21.1865 147.5 20.5563 147.687 20.0146 148.062C19.4782 148.432 19.0589 148.956 18.7568 149.633C18.46 150.305 18.3115 151.094 18.3115 152C18.3115 152.927 18.4574 153.734 18.749 154.422C19.0459 155.109 19.4626 155.643 19.999 156.023C20.5407 156.404 21.1761 156.594 21.9053 156.594C22.3844 156.594 22.8193 156.51 23.21 156.344C23.6006 156.177 23.9313 155.938 24.2021 155.625C24.473 155.312 24.6657 154.937 24.7803 154.5H26.624C26.5199 155.208 26.262 155.846 25.8506 156.414C25.4443 156.977 24.9053 157.424 24.2334 157.758C23.5667 158.086 22.7907 158.25 21.9053 158.25ZM32.8506 158.281C32.0902 158.281 31.4001 158.138 30.7803 157.852C30.1605 157.56 29.6683 157.141 29.3037 156.594C28.9391 156.042 28.7568 155.375 28.7568 154.594C28.7568 153.906 28.8923 153.349 29.1631 152.922C29.4339 152.49 29.7959 152.151 30.249 151.906C30.7021 151.661 31.2021 151.479 31.749 151.359C32.3011 151.234 32.8558 151.135 33.4131 151.063C34.1423 150.969 34.7334 150.898 35.1865 150.852C35.6449 150.799 35.9782 150.714 36.1865 150.594C36.4001 150.474 36.5068 150.266 36.5068 149.969V149.906C36.5068 149.135 36.2959 148.536 35.874 148.109C35.4574 147.682 34.8245 147.469 33.9756 147.469C33.0954 147.469 32.4053 147.661 31.9053 148.047C31.4053 148.432 31.0537 148.844 30.8506 149.281L29.1006 148.656C29.4131 147.927 29.8298 147.359 30.3506 146.953C30.8766 146.542 31.4495 146.255 32.0693 146.094C32.6943 145.927 33.3089 145.844 33.9131 145.844C34.2985 145.844 34.7412 145.891 35.2412 145.984C35.7464 146.073 36.2334 146.258 36.7021 146.539C37.1761 146.82 37.5693 147.245 37.8818 147.812C38.1943 148.38 38.3506 149.141 38.3506 150.094V158H36.5068V156.375H36.4131C36.2881 156.635 36.0798 156.914 35.7881 157.211C35.4964 157.508 35.1084 157.76 34.624 157.969C34.1396 158.177 33.5485 158.281 32.8506 158.281ZM33.1318 156.625C33.861 156.625 34.4756 156.482 34.9756 156.195C35.4808 155.909 35.861 155.539 36.1162 155.086C36.3766 154.633 36.5068 154.156 36.5068 153.656V151.969C36.4287 152.062 36.2568 152.148 35.9912 152.227C35.7308 152.299 35.4287 152.365 35.085 152.422C34.7464 152.474 34.4157 152.521 34.0928 152.562C33.7751 152.599 33.5173 152.63 33.3193 152.656C32.8402 152.719 32.3923 152.82 31.9756 152.961C31.5641 153.096 31.2308 153.302 30.9756 153.578C30.7256 153.849 30.6006 154.219 30.6006 154.687C30.6006 155.328 30.8376 155.812 31.3115 156.141C31.7907 156.464 32.3975 156.625 33.1318 156.625ZM46.2471 158.25C45.2471 158.25 44.3643 157.997 43.5986 157.492C42.833 156.982 42.234 156.263 41.8018 155.336C41.3695 154.404 41.1533 153.302 41.1533 152.031C41.1533 150.771 41.3695 149.677 41.8018 148.75C42.234 147.823 42.8356 147.107 43.6064 146.602C44.3773 146.096 45.2679 145.844 46.2783 145.844C47.0596 145.844 47.6768 145.974 48.1299 146.234C48.5882 146.49 48.9372 146.781 49.1768 147.109C49.4216 147.432 49.6117 147.698 49.7471 147.906H49.9033V142H51.7471V158H49.9658V156.156H49.7471C49.6117 156.375 49.4189 156.651 49.1689 156.984C48.9189 157.312 48.5622 157.607 48.0986 157.867C47.6351 158.122 47.0179 158.25 46.2471 158.25ZM46.4971 156.594C47.2367 156.594 47.8617 156.401 48.3721 156.016C48.8825 155.625 49.2705 155.086 49.5361 154.398C49.8018 153.706 49.9346 152.906 49.9346 152C49.9346 151.104 49.8044 150.32 49.5439 149.648C49.2835 148.971 48.8981 148.445 48.3877 148.07C47.8773 147.69 47.2471 147.5 46.4971 147.5C45.7158 147.5 45.0648 147.701 44.5439 148.102C44.0283 148.497 43.6403 149.036 43.3799 149.719C43.1247 150.396 42.9971 151.156 42.9971 152C42.9971 152.854 43.1273 153.63 43.3877 154.328C43.6533 155.021 44.0439 155.573 44.5596 155.984C45.0804 156.391 45.7262 156.594 46.4971 156.594ZM60.4111 158.25C59.2549 158.25 58.2575 157.995 57.4189 157.484C56.5856 156.969 55.9424 156.25 55.4893 155.328C55.0413 154.401 54.8174 153.323 54.8174 152.094C54.8174 150.865 55.0413 149.781 55.4893 148.844C55.9424 147.901 56.5726 147.167 57.3799 146.641C58.1924 146.109 59.1403 145.844 60.2236 145.844C60.8486 145.844 61.4658 145.948 62.0752 146.156C62.6846 146.365 63.2393 146.703 63.7393 147.172C64.2393 147.635 64.6377 148.25 64.9346 149.016C65.2314 149.781 65.3799 150.724 65.3799 151.844V152.625H56.1299V151.031H63.5049C63.5049 150.354 63.3695 149.75 63.0986 149.219C62.833 148.687 62.4528 148.268 61.958 147.961C61.4684 147.654 60.8903 147.5 60.2236 147.5C59.4893 147.5 58.8538 147.682 58.3174 148.047C57.7861 148.406 57.3773 148.875 57.0908 149.453C56.8044 150.031 56.6611 150.651 56.6611 151.312V152.375C56.6611 153.281 56.8174 154.049 57.1299 154.68C57.4476 155.305 57.8877 155.781 58.4502 156.109C59.0127 156.432 59.6663 156.594 60.4111 156.594C60.8955 156.594 61.333 156.526 61.7236 156.391C62.1195 156.25 62.4606 156.042 62.7471 155.766C63.0335 155.484 63.2549 155.135 63.4111 154.719L65.1924 155.219C65.0049 155.823 64.6898 156.354 64.2471 156.812C63.8044 157.266 63.2575 157.62 62.6064 157.875C61.9554 158.125 61.2236 158.25 60.4111 158.25ZM61.7549 144.562L60.1299 142.375L58.5049 144.562H56.7549V144.437L59.2861 141.187H60.9736L63.5049 144.437V144.562H61.7549ZM68.1846 158V146H69.9658V147.875H70.1221C70.3721 147.234 70.7757 146.737 71.333 146.383C71.8903 146.023 72.5596 145.844 73.3408 145.844C74.1325 145.844 74.7913 146.023 75.3174 146.383C75.8486 146.737 76.2627 147.234 76.5596 147.875H76.6846C76.9919 147.255 77.4528 146.763 78.0674 146.398C78.682 146.029 79.4189 145.844 80.2783 145.844C81.3512 145.844 82.2288 146.18 82.9111 146.852C83.5934 147.518 83.9346 148.557 83.9346 149.969V158H82.0908V149.969C82.0908 149.083 81.8486 148.451 81.3643 148.07C80.8799 147.69 80.3096 147.5 79.6533 147.5C78.8096 147.5 78.1559 147.755 77.6924 148.266C77.2288 148.771 76.9971 149.411 76.9971 150.187V158H75.1221V149.781C75.1221 149.099 74.9007 148.549 74.458 148.133C74.0153 147.711 73.445 147.5 72.7471 147.5C72.2679 147.5 71.82 147.628 71.4033 147.883C70.9919 148.138 70.6585 148.492 70.4033 148.945C70.1533 149.393 70.0283 149.911 70.0283 150.5V158H68.1846ZM87.3057 158V146H89.1494V158H87.3057ZM88.2432 144C87.8838 144 87.5739 143.878 87.3135 143.633C87.0583 143.388 86.9307 143.094 86.9307 142.75C86.9307 142.406 87.0583 142.112 87.3135 141.867C87.5739 141.622 87.8838 141.5 88.2432 141.5C88.6025 141.5 88.9098 141.622 89.165 141.867C89.4255 142.112 89.5557 142.406 89.5557 142.75C89.5557 143.094 89.4255 143.388 89.165 143.633C88.9098 143.878 88.6025 144 88.2432 144ZM97.4014 158.25C96.2764 158.25 95.3076 157.984 94.4951 157.453C93.6826 156.922 93.0576 156.19 92.6201 155.258C92.1826 154.326 91.9639 153.26 91.9639 152.062C91.9639 150.844 92.1878 149.768 92.6357 148.836C93.0889 147.898 93.7191 147.167 94.5264 146.641C95.3389 146.109 96.2868 145.844 97.3701 145.844C98.2139 145.844 98.9743 146 99.6514 146.312C100.328 146.625 100.883 147.062 101.315 147.625C101.748 148.187 102.016 148.844 102.12 149.594H100.276C100.136 149.047 99.8232 148.562 99.3389 148.141C98.8597 147.714 98.2139 147.5 97.4014 147.5C96.6826 147.5 96.0524 147.687 95.5107 148.062C94.9743 148.432 94.555 148.956 94.2529 149.633C93.9561 150.305 93.8076 151.094 93.8076 152C93.8076 152.927 93.9535 153.734 94.2451 154.422C94.542 155.109 94.9587 155.643 95.4951 156.023C96.0368 156.404 96.6722 156.594 97.4014 156.594C97.8805 156.594 98.3154 156.51 98.7061 156.344C99.0967 156.177 99.4274 155.938 99.6982 155.625C99.9691 155.312 100.162 154.937 100.276 154.5H102.12C102.016 155.208 101.758 155.846 101.347 156.414C100.94 156.977 100.401 157.424 99.7295 157.758C99.0628 158.086 98.2868 158.25 97.4014 158.25ZM108.347 158.281C107.586 158.281 106.896 158.138 106.276 157.852C105.657 157.56 105.164 157.141 104.8 156.594C104.435 156.042 104.253 155.375 104.253 154.594C104.253 153.906 104.388 153.349 104.659 152.922C104.93 152.49 105.292 152.151 105.745 151.906C106.198 151.661 106.698 151.479 107.245 151.359C107.797 151.234 108.352 151.135 108.909 151.063C109.638 150.969 110.229 150.898 110.683 150.852C111.141 150.799 111.474 150.714 111.683 150.594C111.896 150.474 112.003 150.266 112.003 149.969V149.906C112.003 149.135 111.792 148.536 111.37 148.109C110.953 147.682 110.321 147.469 109.472 147.469C108.591 147.469 107.901 147.661 107.401 148.047C106.901 148.432 106.55 148.844 106.347 149.281L104.597 148.656C104.909 147.927 105.326 147.359 105.847 146.953C106.373 146.542 106.946 146.255 107.565 146.094C108.19 145.927 108.805 145.844 109.409 145.844C109.795 145.844 110.237 145.891 110.737 145.984C111.243 146.073 111.729 146.258 112.198 146.539C112.672 146.82 113.065 147.245 113.378 147.812C113.69 148.38 113.847 149.141 113.847 150.094V158H112.003V156.375H111.909C111.784 156.635 111.576 156.914 111.284 157.211C110.993 157.508 110.604 157.76 110.12 157.969C109.636 158.177 109.045 158.281 108.347 158.281ZM108.628 156.625C109.357 156.625 109.972 156.482 110.472 156.195C110.977 155.909 111.357 155.539 111.612 155.086C111.873 154.633 112.003 154.156 112.003 153.656V151.969C111.925 152.062 111.753 152.148 111.487 152.227C111.227 152.299 110.925 152.365 110.581 152.422C110.243 152.474 109.912 152.521 109.589 152.562C109.271 152.599 109.013 152.63 108.815 152.656C108.336 152.719 107.888 152.82 107.472 152.961C107.06 153.096 106.727 153.302 106.472 153.578C106.222 153.849 106.097 154.219 106.097 154.687C106.097 155.328 106.334 155.812 106.808 156.141C107.287 156.464 107.894 156.625 108.628 156.625Z" fill="white"/>
</svg>
